<svg xmlns="http://www.w3.org/2000/svg" viewBox="0 0 68.01 9.8" height="37.05" width="257.05"><path d="m0 6.04 1.44-.23q.19.46.47.65.29.19.78.19.5 0 .8-.23.22-.16.22-.38 0-.15-.1-.27-.12-.11-.62-.28-1.35-.44-1.67-.7-.5-.4-.5-1.05t.49-1.13q.67-.65 2-.65 1.07 0 1.61.39.54.38.69 1.05l-1.37.23q-.11-.3-.35-.45-.33-.2-.8-.2-.46 0-.67.16-.2.15-.2.35 0 .21.2.34.13.09.84.3 1.08.3 1.45.61.51.43.51 1.04 0 .78-.65 1.35-.66.57-1.85.57T.88 7.27Q.23 6.83 0 6.04ZM7.66 0h1.48l-.28 1.34H7.38Zm-.44 2.09h1.49L7.56 7.58H6.08Zm1.72 5.78 1.57.22q0 .24.07.36.08.12.25.2.18.1.48.1.47 0 .75-.2.21-.14.35-.46.08-.2.2-.88l.06-.25q-.77.64-1.6.64-.8 0-1.31-.57-.52-.57-.52-1.67 0-.96.35-1.77.35-.8.99-1.22.63-.41 1.3-.41.54 0 1 .29.45.29.7.8l.21-.96h1.4l-.96 4.57q-.23 1.1-.4 1.57-.15.47-.36.75-.2.28-.52.47-.32.19-.74.27-.43.08-.93.08-1.17 0-1.76-.4-.6-.4-.6-1.32l.02-.21zm1.75-2.66q0 .63.28.96.28.33.7.33.4 0 .75-.3.37-.3.56-.84.2-.54.2-1.05 0-.58-.32-.94-.31-.35-.73-.35-.4 0-.73.31-.33.32-.55.97-.16.51-.16.91zm5.96-3.12h1.4l-.14.71q.53-.45.98-.65.46-.2.97-.2.68 0 1.06.4.4.38.4 1.02 0 .3-.17 1.1l-.65 3.1h-1.48l.65-3.11q.14-.7.14-.83 0-.29-.17-.45-.16-.16-.46-.16-.33 0-.73.27-.4.28-.62.73-.17.32-.37 1.3l-.47 2.26H15.5zm6.43 0h1.49l-.68 3.25q-.12.58-.12.73 0 .23.17.4.18.18.45.18.2 0 .39-.08.19-.07.4-.22.2-.16.35-.36.16-.2.3-.51.1-.24.21-.78l.55-2.61h1.49l-1.15 5.49h-1.39l.16-.75q-.91.87-1.98.87-.68 0-1.07-.38-.38-.39-.38-1.04 0-.29.17-1.13zM30 0h1.48l-.28 1.34h-1.5Zm-.44 2.09h1.48L29.9 7.58h-1.48zm1.6 3.95 1.44-.23q.19.46.47.65.29.19.78.19.5 0 .8-.23.22-.16.22-.38 0-.15-.1-.27-.12-.11-.62-.28-1.35-.44-1.67-.7-.5-.4-.5-1.05t.49-1.13q.68-.65 2-.65 1.07 0 1.61.39.54.38.69 1.05l-1.37.23q-.11-.3-.35-.45-.33-.2-.8-.2-.46 0-.67.16-.2.15-.2.35 0 .21.2.34.13.09.84.3 1.08.3 1.45.61.52.43.52 1.04 0 .78-.66 1.35-.66.57-1.85.57t-1.84-.43q-.65-.44-.88-1.23zm6.45-2.85.23-1.1h.72l.18-.88 1.7-1.02-.4 1.9h.9l-.22 1.1h-.9l-.49 2.3q-.13.62-.13.71 0 .17.11.27.1.1.4.1l.48-.04-.23 1.1q-.38.07-.78.07-.79 0-1.15-.3-.35-.3-.35-.84 0-.25.19-1.16l.46-2.21zM42.34 0h1.49l-.28 1.34h-1.49Zm-.43 2.09h1.48l-1.14 5.49h-1.49Zm5.51 3.41 1.45.24q-.36.96-1.06 1.46-.7.5-1.62.5-1.05 0-1.66-.62-.62-.63-.62-1.72 0-.9.38-1.7.37-.79 1.12-1.24.75-.46 1.64-.46.97 0 1.55.5.58.51.65 1.34l-1.4.15q-.06-.46-.3-.68-.22-.22-.6-.22-.42 0-.8.32-.36.32-.57.97-.2.63-.2 1.19 0 .49.25.75.23.26.59.26t.69-.26q.33-.25.51-.77zm1.98.54 1.43-.23q.2.46.48.65.28.19.77.19.51 0 .82-.23.2-.16.2-.38 0-.15-.1-.27-.11-.11-.62-.28-1.34-.44-1.66-.7-.5-.4-.5-1.05t.48-1.13q.68-.65 2.02-.65 1.05 0 1.6.39.54.38.68 1.05l-1.37.23q-.1-.3-.35-.45-.33-.2-.8-.2-.46 0-.66.16-.2.15-.2.35 0 .21.2.34.13.09.83.3 1.09.3 1.46.61.51.43.51 1.04 0 .78-.65 1.35-.66.57-1.85.57-1.2 0-1.84-.43-.65-.44-.88-1.23zm6.42.1h1.46l-.3 1.44h-1.46zm4.68-2.5-1.44-.12q.25-.73.86-1.15.62-.41 1.64-.41 1.06 0 1.57.43.5.42.5 1.04 0 .24-.04.52t-.3 1.47q-.22.98-.22 1.38 0 .35.12.78h-1.44q-.09-.3-.11-.62-.33.36-.75.55-.42.2-.85.2-.68 0-1.13-.45-.44-.45-.44-1.15 0-.79.48-1.26.5-.47 1.75-.57 1.06-.08 1.42-.2.09-.32.09-.5 0-.24-.2-.4-.18-.16-.56-.16-.4 0-.63.16-.23.16-.31.46zm1.42 1.38-.36.06q-1.11.14-1.46.4-.24.18-.24.5 0 .26.19.44.18.17.49.17.33 0 .63-.16t.44-.41q.15-.26.27-.8zm2.75-1.83.23-1.1h.72l.18-.88L67.5.19l-.4 1.9h.91l-.23 1.1h-.9l-.49 2.3q-.13.62-.13.71 0 .17.11.27t.4.1l.49-.04-.24 1.1q-.38.07-.78.07-.79 0-1.14-.3-.36-.3-.36-.84 0-.25.2-1.16l.45-2.21z" aria-label="signuistics.at" fill="orange"/></svg>
